<?xml version="1.0" standalone="no"?>
<!DOCTYPE svg PUBLIC "-//W3C//DTD SVG 20010904//EN"
 "http://www.w3.org/TR/2001/REC-SVG-20010904/DTD/svg10.dtd">
<svg version="1.0" xmlns="http://www.w3.org/2000/svg"
 width="460.000000pt" height="460.000000pt" viewBox="0 0 460.000000 460.000000"
 preserveAspectRatio="xMidYMid meet">
<metadata>
Created by potrace 1.14, written by Peter Selinger 2001-2017
</metadata>
<g transform="translate(0.000000,460.000000) scale(0.100000,-0.100000)"
fill="#000000" stroke="none">
<path d="M1990 4595 c-8 -2 -49 -8 -90 -15 -177 -28 -376 -87 -538 -161 -35
-16 -67 -29 -72 -29 -5 0 -10 -3 -12 -7 -1 -5 -36 -24 -75 -43 -40 -19 -73
-38 -73 -41 0 -4 -11 -10 -25 -13 -14 -4 -25 -11 -25 -16 0 -6 -7 -10 -15 -10
-8 0 -15 -4 -15 -10 0 -5 -7 -10 -15 -10 -8 0 -24 -9 -35 -20 -11 -11 -23 -20
-27 -20 -5 0 -20 -10 -35 -23 -14 -12 -39 -31 -54 -42 -40 -30 -81 -65 -131
-112 -24 -24 -46 -43 -48 -43 -7 0 -95 -88 -95 -94 0 -3 -19 -25 -42 -49 -47
-47 -78 -85 -78 -92 0 -2 -14 -18 -30 -35 -17 -17 -30 -34 -30 -38 0 -4 -14
-23 -30 -42 -16 -19 -30 -39 -30 -45 0 -5 -14 -28 -30 -49 -17 -22 -30 -46
-30 -53 0 -7 -4 -13 -9 -13 -9 0 -128 -237 -151 -300 -7 -19 -18 -48 -25 -65
-20 -46 -71 -229 -97 -345 -22 -99 -23 -126 -23 -460 0 -334 1 -361 23 -460
27 -122 68 -272 86 -315 7 -16 23 -57 36 -90 31 -82 139 -299 151 -303 5 -2 9
-9 9 -16 0 -7 18 -38 40 -70 22 -31 40 -61 40 -66 0 -6 4 -10 8 -10 4 0 16
-14 26 -30 9 -17 28 -41 42 -55 13 -13 24 -26 24 -29 0 -26 249 -279 351 -356
18 -14 37 -30 43 -35 6 -6 34 -26 61 -45 28 -19 51 -38 53 -42 2 -5 9 -8 16
-8 7 0 26 -11 42 -25 16 -14 38 -28 49 -31 11 -4 22 -10 25 -14 3 -5 75 -42
160 -83 228 -109 374 -156 616 -197 117 -20 154 -21 438 -17 287 4 320 6 431
30 142 31 216 52 345 99 111 41 383 178 424 213 16 14 33 25 38 25 5 0 16 6
23 12 7 7 39 31 69 52 31 22 56 43 56 48 0 4 6 8 13 8 7 0 20 8 29 18 9 9 42
40 74 67 78 68 134 121 134 128 0 4 19 26 43 50 23 24 56 61 72 81 17 21 35
43 40 50 38 44 75 96 75 105 0 6 5 11 10 11 6 0 10 6 10 13 0 6 14 30 30 51
17 22 30 45 30 52 0 7 4 14 8 16 10 4 43 63 78 138 14 30 36 78 50 107 13 28
24 58 24 65 0 8 4 18 9 24 26 27 100 296 126 454 21 133 21 627 0 760 -32 199
-106 443 -175 580 -9 19 -28 58 -40 85 -13 28 -26 52 -29 55 -3 3 -13 19 -21
35 -8 17 -31 56 -52 87 -21 31 -38 60 -38 64 0 9 -79 114 -102 135 -10 9 -18
21 -18 28 0 6 -9 16 -20 23 -11 7 -20 17 -20 22 0 5 -20 29 -45 53 -25 24 -45
47 -45 51 0 4 -25 30 -56 57 -31 28 -73 66 -94 85 -20 19 -52 46 -70 60 -18
14 -47 37 -64 52 -17 15 -37 28 -43 28 -7 0 -13 5 -13 10 0 6 -7 10 -15 10 -8
0 -15 5 -15 10 0 6 -10 15 -22 20 -26 11 -57 30 -74 46 -6 6 -52 30 -100 55
-49 24 -90 47 -92 52 -2 4 -8 7 -13 7 -6 0 -42 15 -82 34 -109 50 -297 111
-442 142 -125 27 -143 28 -455 30 -179 1 -332 1 -340 -1z"/>
</g>
</svg>
